{
	"asset":{
		"generator":"Khronos glTF Blender I/O v4.3.47",
		"version":"2.0"
	},
	"extensionsUsed":[
		"KHR_materials_clearcoat",
		"KHR_materials_transmission",
		"KHR_materials_anisotropy",
		"KHR_materials_ior"
	],
	"scene":0,
	"scenes":[
		{
			"name":"Scene",
			"nodes":[
				0
			]
		}
	],
	"nodes":[
		{
			"mesh":0,
			"name":"shell",
			"translation":[
				-0.7457108497619629,
				1.2085658311843872,
				3.497126817703247
			]
		}
	],
	"materials":[
		{
			"doubleSided":true,
			"extensions":{
				"KHR_materials_clearcoat":{
					"clearcoatFactor":0.125,
					"clearcoatRoughnessFactor":0.03454545512795448
				},
				"KHR_materials_transmission":{
					"transmissionFactor":0.5
				},
				"KHR_materials_anisotropy":{
					"anisotropyStrength":1
				},
				"KHR_materials_ior":{
					"ior":1.4500000476837158
				}
			},
			"name":"shell",
			"pbrMetallicRoughness":{
				"baseColorTexture":{
					"index":0
				},
				"metallicFactor":0,
				"roughnessFactor":0.5
			}
		}
	],
	"meshes":[
		{
			"name":"shell",
			"primitives":[
				{
					"attributes":{
						"POSITION":0,
						"NORMAL":1,
						"TEXCOORD_0":2
					},
					"indices":3,
					"material":0
				}
			]
		}
	],
	"textures":[
		{
			"sampler":0,
			"source":0
		}
	],
	"images":[
		{
			"mimeType":"image/jpeg",
			"name":"1646966572_1-abrakadabra-fun-p-tekstura-rakushki-1",
			"uri":"1646966572_1-abrakadabra-fun-p-tekstura-rakushki-1.jpg"
		}
	],
	"accessors":[
		{
			"bufferView":0,
			"componentType":5126,
			"count":473,
			"max":[
				3.0697481632232666,
				2.14572811126709,
				-0.061380837112665176
			],
			"min":[
				-1.8460365533828735,
				-1.2578901052474976,
				-6.60026741027832
			],
			"type":"VEC3"
		},
		{
			"bufferView":1,
			"componentType":5126,
			"count":473,
			"type":"VEC3"
		},
		{
			"bufferView":2,
			"componentType":5126,
			"count":473,
			"type":"VEC2"
		},
		{
			"bufferView":3,
			"componentType":5123,
			"count":2526,
			"type":"SCALAR"
		}
	],
	"bufferViews":[
		{
			"buffer":0,
			"byteLength":5676,
			"byteOffset":0,
			"target":34962
		},
		{
			"buffer":0,
			"byteLength":5676,
			"byteOffset":5676,
			"target":34962
		},
		{
			"buffer":0,
			"byteLength":3784,
			"byteOffset":11352,
			"target":34962
		},
		{
			"buffer":0,
			"byteLength":5052,
			"byteOffset":15136,
			"target":34963
		}
	],
	"samplers":[
		{
			"magFilter":9729,
			"minFilter":9987
		}
	],
	"buffers":[
		{
			"byteLength":20188,
			"uri":"shell.bin"
		}
	]
}
